REM DIRINDEX 1\2\5,1\2\6,1\2\7,1\2\8,1\3\9,1\3\10,1\3\11,1\4\12,1\4\13,1\4\14,1\4\15,1\4\16
REM DIRNAME folder01,folder02,folder03,folder04,folder05,folder06,folder07,folder08,folder09,folder10,folder11,folder12,folder13,folder14,folder15,folder16
TITLE ""
FILE "1200_sec04_1197_1203.mp3" MP3
  TRACK 01 AUDIO
    TITLE "0:"
    INDEX 01 00:00:00
  TRACK 02 AUDIO
    TITLE "12:cjc034_08485"
    INDEX 01 00:00:17
  TRACK 03 AUDIO
    TITLE "0:"
    INDEX 01 00:01:11
  TRACK 04 AUDIO
    TITLE "13:cjc034_08486"
    INDEX 01 00:01:46
  TRACK 05 AUDIO
    TITLE "0:"
    INDEX 01 00:04:74
  TRACK 06 AUDIO
    TITLE "14:cjc034_08487"
    INDEX 01 00:05:30
  TRACK 07 AUDIO
    TITLE "0:"
    INDEX 01 00:06:26
  TRACK 08 AUDIO
    TITLE "15:cjc034_08488"
    INDEX 01 00:06:61
  TRACK 09 AUDIO
    TITLE "0:"
    INDEX 01 00:10:19
  TRACK 10 AUDIO
    TITLE "16:cjc034_08489"
    INDEX 01 00:11:54
  TRACK 11 AUDIO
    TITLE "0:"
    INDEX 01 00:15:62
  TRACK 12 AUDIO
    TITLE "12:cjc034_08490"
    INDEX 01 00:16:65
  TRACK 13 AUDIO
    TITLE "0:"
    INDEX 01 00:17:72
  TRACK 14 AUDIO
    TITLE "13:cjc034_08491"
    INDEX 01 00:18:29
  TRACK 15 AUDIO
    TITLE "0:"
    INDEX 01 00:21:00
  TRACK 16 AUDIO
    TITLE "14:cjc034_08492"
    INDEX 01 00:21:31
  TRACK 17 AUDIO
    TITLE "0:"
    INDEX 01 00:22:38
  TRACK 18 AUDIO
    TITLE "15:cjc034_08493"
    INDEX 01 00:22:70
  TRACK 19 AUDIO
    TITLE "0:"
    INDEX 01 00:28:08
  TRACK 20 AUDIO
    TITLE "12:cjc034_08494"
    INDEX 01 00:29:42
  TRACK 21 AUDIO
    TITLE "0:"
    INDEX 01 00:30:63
  TRACK 22 AUDIO
    TITLE "13:cjc034_08495"
    INDEX 01 00:31:22
  TRACK 23 AUDIO
    TITLE "0:"
    INDEX 01 00:32:35
  TRACK 24 AUDIO
    TITLE "14:cjc034_08496"
    INDEX 01 00:32:70
  TRACK 25 AUDIO
    TITLE "0:"
    INDEX 01 00:34:14
  TRACK 26 AUDIO
    TITLE "15:cjc034_08497"
    INDEX 01 00:34:49
  TRACK 27 AUDIO
    TITLE "0:"
    INDEX 01 00:39:66
  TRACK 28 AUDIO
    TITLE "12:cjc034_08498"
    INDEX 01 00:41:24
  TRACK 29 AUDIO
    TITLE "0:"
    INDEX 01 00:42:59
  TRACK 30 AUDIO
    TITLE "13:cjc034_08499"
    INDEX 01 00:43:15
  TRACK 31 AUDIO
    TITLE "0:"
    INDEX 01 00:45:37
  TRACK 32 AUDIO
    TITLE "14:cjc034_08500"
    INDEX 01 00:45:67
  TRACK 33 AUDIO
    TITLE "0:"
    INDEX 01 00:47:27
  TRACK 34 AUDIO
    TITLE "15:cjc034_08501"
    INDEX 01 00:47:58
  TRACK 35 AUDIO
    TITLE "0:"
    INDEX 01 00:51:38
  TRACK 36 AUDIO
    TITLE "12:cjc034_08502"
    INDEX 01 00:52:73
  TRACK 37 AUDIO
    TITLE "0:"
    INDEX 01 00:53:74
  TRACK 38 AUDIO
    TITLE "13:cjc034_08503"
    INDEX 01 00:54:29
  TRACK 39 AUDIO
    TITLE "0:"
    INDEX 01 00:56:41
  TRACK 40 AUDIO
    TITLE "14:cjc034_08504"
    INDEX 01 00:57:01
  TRACK 41 AUDIO
    TITLE "0:"
    INDEX 01 00:58:03
  TRACK 42 AUDIO
    TITLE "15:cjc034_08505"
    INDEX 01 00:58:36
  TRACK 43 AUDIO
    TITLE "0:"
    INDEX 01 01:01:38
  TRACK 44 AUDIO
    TITLE "12:cjc034_08506"
    INDEX 01 01:02:71
  TRACK 45 AUDIO
    TITLE "0:"
    INDEX 01 01:04:11
  TRACK 46 AUDIO
    TITLE "13:cjc034_08507"
    INDEX 01 01:04:48
  TRACK 47 AUDIO
    TITLE "0:"
    INDEX 01 01:06:06
  TRACK 48 AUDIO
    TITLE "14:cjc034_08508"
    INDEX 01 01:06:40
  TRACK 49 AUDIO
    TITLE "0:"
    INDEX 01 01:07:57
  TRACK 50 AUDIO
    TITLE "15:cjc034_08509"
    INDEX 01 01:08:15
  TRACK 51 AUDIO
    TITLE "0:"
    INDEX 01 01:13:06
  TRACK 52 AUDIO
    TITLE "12:cjc034_08510"
    INDEX 01 01:14:37
  TRACK 53 AUDIO
    TITLE "0:"
    INDEX 01 01:15:54
  TRACK 54 AUDIO
    TITLE "13:cjc034_08511"
    INDEX 01 01:16:11
  TRACK 55 AUDIO
    TITLE "0:"
    INDEX 01 01:17:14
  TRACK 56 AUDIO
    TITLE "14:cjc034_08512"
    INDEX 01 01:17:49
  TRACK 57 AUDIO
    TITLE "0:"
    INDEX 01 01:18:62
  TRACK 58 AUDIO
    TITLE "15:cjc034_08513"
    INDEX 01 01:19:23
  TRACK 59 AUDIO
    TITLE "0:"
    INDEX 01 01:23:65
